<?xml version="1.0" encoding="UTF-8"?>
<svg width="256px" height="256px" viewBox="0 0 256 256" version="1.1" xmlns="http://www.w3.org/2000/svg" xmlns:xlink="http://www.w3.org/1999/xlink">
    <!-- Generator: Sketch 43.2 (39069) - http://www.bohemiancoding.com/sketch -->
    <title>Artboard Copy</title>
    <desc>Created with Sketch.</desc>
    <defs>
        <polygon id="path-1" points="0.313600078 0.200713615 175.94218 0.200713615 175.94218 254.798122 0.313600078 254.798122 0.313600078 0.200713615"></polygon>
        <polygon id="path-3" points="31.6490516 0.730974904 31.6490516 122.241442 0.102760563 122.241442 0.102760563 0.730974904 31.6490516 0.730974904"></polygon>
    </defs>
    <g id="Logo" stroke="none" stroke-width="1" fill="none" fill-rule="evenodd">
        <g id="Artboard-Copy">
            <g id="Page-1" transform="translate(1.000000, 0.000000)">
                <g id="Group-3" transform="translate(43.267606, 1.001164)">
                    <mask id="mask-2" fill="white">
                        <use xlink:href="#path-1"></use>
                    </mask>
                    <g id="Clip-2"></g>
                    <path d="M13.4210103,86.9357972 L1.20151737,93.5461258 C1.20151737,93.5461258 0.401066667,71.7116094 31.2484657,52.8829897 C25.2390761,46.4721728 16.2249915,39.8618441 16.2249915,39.8618441 C16.2249915,39.8618441 29.2461371,27.4428394 56.087677,35.855985 C57.0888413,23.4369803 70.5102122,2.0026892 84.5325221,0.1998723 C82.3282779,6.00975023 78.5231324,20.2315718 80.7261746,27.0426141 C87.7367286,23.636492 121.790738,2.0026892 149.834156,30.8477596 C144.224992,31.2491869 136.814212,31.6494122 129.201517,37.4580883 C141.220297,42.6670272 172.269611,63.8994028 172.269611,80.3254685 L163.054813,80.3254685 C163.054813,80.3254685 187.492597,119.786727 169.064203,149.033224 C165.458569,143.624774 162.654588,136.212792 162.654588,136.212792 C162.654588,136.212792 167.862325,173.270295 154.641668,189.296135 C151.837686,180.481562 148.232053,171.267966 148.232053,171.267966 C148.232053,171.267966 150.034869,210.528511 122.190963,230.159985 C120.788372,221.746839 118.985555,214.535572 118.985555,214.535572 C118.985555,214.535572 108.570081,249.189318 83.3306441,254.798483 C83.3306441,254.798483 80.3752263,252.845431 79.9245221,249.390032 C79.4630009,244.604154 73.514907,240.375947 71.3118648,237.972192 C69.1076207,235.568436 62.497292,226.954577 62.497292,219.743309 C62.0970667,225.752699 61.4961277,233.364192 61.4961277,233.364192 C61.4961277,233.364192 35.4550385,234.165844 31.048954,187.493318 C28.6451981,191.699891 25.6405033,200.513262 25.6405033,200.513262 C25.6405033,200.513262 12.2191324,192.901769 12.2191324,148.030858 C10.992015,149.533206 8.7384939,156.293769 6.20974272,161.852454 C2.40339531,151.43698 -8.01207887,125.796116 13.4210103,86.9357972" id="Fill-1" fill="#FEFEFE" mask="url(#mask-2)"></path>
                </g>
                <path d="M32.777615,135.239512 C32.5913239,124.81923 34.3592864,114.118911 38.0502535,103.253934 C35.4157371,101.3117 33.7811831,98.2601315 33.6597934,94.9441502 C33.6273427,94.06077 33.6177277,90.6450329 34.8857089,85.6752676 C16.7265352,61.1076808 24.8151737,40.4822535 24.2382723,31.2482254 C23.6373333,21.6332019 16.2253521,27.4418779 16.2253521,27.4418779 C16.2253521,27.4418779 0,48.27523 0,74.7165446 C0,115.596019 24.4305728,138.866779 33.723493,146.2403 C33.2066854,142.872638 32.8485258,139.204507 32.777615,135.239512" id="Fill-4" fill="#FEFEFE"></path>
                <g id="Group-8" transform="translate(222.347418, 11.818066)">
                    <mask id="mask-4" fill="white">
                        <use xlink:href="#path-3"></use>
                    </mask>
                    <g id="Clip-7"></g>
                    <path d="M10.0158498,3.80598685 C6.61092958,-0.400585915 0.801051643,-1.60246385 3.80574648,8.81421221 C11.1251831,32.673893 4.75523005,49.4617239 0.792638498,56.7787568 C2.92116432,61.1403718 4.00646009,65.3902122 4.00646009,69.5090479 C4.00646009,72.8538742 2.48848826,75.8441465 0.102760563,77.8284469 C4.68792488,89.0095174 9.42692958,105.499283 7.02557746,122.241442 C16.9723192,112.984578 31.6496526,88.688616 31.6496526,62.0970667 C31.6496526,28.6451981 13.42077,8.01255962 10.0158498,3.80598685" id="Fill-6" fill="#FEFEFE" mask="url(#mask-4)"></path>
                </g>
            </g>
        </g>
    </g>
</svg>