<?xml version="1.0" encoding="UTF-8"?>
<svg width="256px" height="256px" viewBox="0 0 256 256" version="1.1" xmlns="http://www.w3.org/2000/svg" xmlns:xlink="http://www.w3.org/1999/xlink">
    <!-- Generator: Sketch 43.2 (39069) - http://www.bohemiancoding.com/sketch -->
    <title>Artboard Copy 2</title>
    <desc>Created with Sketch.</desc>
    <defs>
        <polygon id="path-1" points="0.211526327 0.135715683 118.674725 0.135715683 118.674725 172.285777 0.211526327 172.285777 0.211526327 0.135715683"></polygon>
        <polygon id="path-3" points="21.3475956 0.494260233 21.3475956 82.655483 0.0693130075 82.655483 0.0693130075 0.494260233 21.3475956 0.494260233"></polygon>
    </defs>
    <g id="Logo" stroke="none" stroke-width="1" fill="none" fill-rule="evenodd">
        <g id="Artboard-Copy-2">
            <circle id="Oval" fill="#CC0000" cx="128" cy="128" r="128"></circle>
            <g id="Page-1" transform="translate(41.000000, 46.000000)">
                <g id="Group-3" transform="translate(29.184424, 0.000787)">
                    <mask id="mask-2" fill="white">
                        <use xlink:href="#path-1"></use>
                    </mask>
                    <g id="Clip-2"></g>
                    <path d="M9.05260305,58.7830131 L0.810435246,63.2526913 C0.810435246,63.2526913 0.270523399,48.488938 21.0773965,35.7576692 C17.0240042,31.422894 10.9439159,26.9532159 10.9439159,26.9532159 C10.9439159,26.9532159 19.7268062,18.5559096 37.831688,24.2445909 C38.5069832,15.8472846 47.5598294,1.35414995 57.0180149,0.135146815 C55.5312306,4.06358759 52.9646226,13.679897 54.4505962,18.2852909 C59.1792836,15.9821876 82.1490468,1.35414995 101.064607,20.8582002 C97.2811708,21.1296315 92.2825274,21.4002502 87.1476901,25.3278783 C95.2544746,28.8499847 116.197542,43.206591 116.197542,54.3133349 L109.98207,54.3133349 C109.98207,54.3133349 126.465595,80.9956883 114.035462,100.77117 C111.603427,97.1141605 109.712114,92.1024322 109.712114,92.1024322 C109.712114,92.1024322 113.224784,117.159448 104.307321,127.995573 C102.416008,122.035461 99.9839727,115.805542 99.9839727,115.805542 C99.9839727,115.805542 101.19999,142.35218 82.4190028,155.626311 C81.472941,149.93763 80.2569233,145.061617 80.2569233,145.061617 C80.2569233,145.061617 73.2315839,168.493296 56.2073364,172.286021 C56.2073364,172.286021 54.2138781,170.965434 53.9098737,168.629011 C53.5985732,165.392964 49.5865255,162.533996 48.1005519,160.908658 C46.6137677,159.28332 42.1550362,153.458924 42.1550362,148.582911 C41.8850803,152.646255 41.479741,157.792886 41.479741,157.792886 C41.479741,157.792886 23.9147711,158.334936 20.9428239,126.77657 C19.321467,129.620911 17.2947708,135.580211 17.2947708,135.580211 C17.2947708,135.580211 8.2419246,130.43358 8.2419246,100.093404 C7.4142219,101.10924 5.8941998,105.680502 4.18853235,109.439095 C1.6211137,102.396507 -5.40422575,85.0590321 9.05260305,58.7830131" id="Fill-1" fill="#FFFFFF" mask="url(#mask-2)"></path>
                </g>
                <path d="M22.1088227,90.7681673 C21.9831675,83.7223291 23.1756755,76.4871392 25.665269,69.1406136 C23.8882619,67.8273409 22.7857392,65.7639749 22.7038607,63.5218218 C22.6819723,62.9245103 22.6754869,60.6149056 23.5307527,57.2545203 C11.282212,40.6427582 16.738078,26.6965497 16.3489523,20.4528156 C15.9436131,13.9514655 10.9441591,17.8790936 10.9441591,17.8790936 C10.9441591,17.8790936 0,31.9658939 0,49.8446066 C0,77.4859091 16.4786608,93.2208016 22.7468266,98.2065244 C22.3982349,95.9294265 22.1566527,93.4491615 22.1088227,90.7681673" id="Fill-4" fill="#FFFFFF"></path>
                <g id="Group-8" transform="translate(149.975513, 7.314806)">
                    <mask id="mask-4" fill="white">
                        <use xlink:href="#path-3"></use>
                    </mask>
                    <g id="Clip-7"></g>
                    <path d="M6.75578886,2.57347816 C4.45913681,-0.270862497 0.540317187,-1.08353126 2.56701331,5.95986888 C7.50404507,22.0929691 3.20744929,33.4443263 0.534642438,38.3918537 C1.97035397,41.3410286 2.70239661,44.2146254 2.70239661,46.9996412 C2.70239661,49.2612983 1.67850973,51.2832182 0.0693130075,52.6249343 C3.16205129,60.1851918 6.35855642,71.3350072 4.73882088,82.655483 C11.4479957,76.3963082 21.348001,59.9682092 21.348001,41.987913 C21.348001,19.3689034 9.05244091,5.41781881 6.75578886,2.57347816" id="Fill-6" fill="#FFFFFF" mask="url(#mask-4)"></path>
                </g>
            </g>
        </g>
    </g>
</svg>