<?xml version="1.0" encoding="UTF-8"?>
<svg width="32px" height="32px" viewBox="0 0 32 32" version="1.1" xmlns="http://www.w3.org/2000/svg" xmlns:xlink="http://www.w3.org/1999/xlink">
    <!-- Generator: Sketch 45.1 (43504) - http://www.bohemiancoding.com/sketch -->
    <title>Group 6</title>
    <desc>Created with Sketch.</desc>
    <defs>
        <polygon id="path-1" points="0.0267743888 0.0172274042 15.0215024 0.0172274042 15.0215024 21.8695191 0.0267743888 21.8695191 0.0267743888 0.0172274042"></polygon>
        <polygon id="path-3" points="2.70211672 0.0627401391 2.70211672 10.4920772 0.00877343939 10.4920772 0.00877343939 0.0627401391 2.70211672 0.0627401391"></polygon>
    </defs>
    <g id="Header-Navigation" stroke="none" stroke-width="1" fill="none" fill-rule="evenodd">
        <g id="Navigation-Copy" transform="translate(-220.000000, -14.000000)">
            <g id="Group-6" transform="translate(220.000000, 14.000000)">
                <rect id="Rectangle-6" fill="#007EDA" x="0" y="0" width="32" height="32" rx="8"></rect>
                <g id="Group-4" transform="translate(5.090909, 5.090909)">
                    <g id="Page-1">
                        <g id="Group-3" transform="translate(3.694080, 0.085931)">
                            <mask id="mask-2" fill="white">
                                <use xlink:href="#path-1"></use>
                            </mask>
                            <g id="Clip-2"></g>
                            <path d="M1.14585223,7.46176644 L0.102582542,8.02913604 C0.102582542,8.02913604 0.034242067,6.15506268 2.6679157,4.53898774 C2.15484907,3.98874239 1.38524912,3.42137279 1.38524912,3.42137279 C1.38524912,3.42137279 2.4969619,2.35544005 4.78862531,3.07754681 C4.87410221,2.01161407 6.01998523,0.171892357 7.2171749,0.0171551935 C7.02898206,0.515821492 6.70410827,1.7364914 6.8921985,2.3210884 C7.49074203,2.02873832 10.398188,0.171892357 12.7924648,2.64768697 C12.3135684,2.68214178 11.6808546,2.71649343 11.0309018,3.21505657 C12.0570351,3.66214381 14.7079477,5.48453497 14.7079477,6.89439684 L13.9212113,6.89439684 C13.9212113,6.89439684 16.0076481,10.281387 14.434278,12.7916365 C14.126438,12.327425 13.8870411,11.6912489 13.8870411,11.6912489 C13.8870411,11.6912489 14.3316647,14.8719229 13.2029181,16.2474331 C12.9635212,15.4908715 12.6556812,14.7000615 12.6556812,14.7000615 C12.6556812,14.7000615 12.8096012,18.0698243 10.4323583,19.7548088 C10.3126085,19.032702 10.1586885,18.4137534 10.1586885,18.4137534 C10.1586885,18.4137534 9.26944143,21.3881111 7.11456158,21.86955 C7.11456158,21.86955 6.86223541,21.7019181 6.82375541,21.4053386 C6.78435189,20.994563 6.27651854,20.6316527 6.08842832,20.4253365 C5.90023548,20.2190203 5.33586218,19.4796861 5.33586218,18.8607375 C5.30169194,19.376528 5.25038528,20.0298283 5.25038528,20.0298283 C5.25038528,20.0298283 3.02706234,20.0986348 2.65088189,16.0926959 C2.44565523,16.4537493 2.18912192,17.2102077 2.18912192,17.2102077 C2.18912192,17.2102077 1.0432389,16.5569074 1.0432389,12.7056026 C0.938470698,12.8345502 0.746070711,13.4148146 0.530172273,13.8919208 C0.205195869,12.9979527 -0.684051217,10.7971776 1.14585223,7.46176644" id="Fill-1" fill="#FFFFFF" mask="url(#mask-2)"></path>
                        </g>
                        <path d="M2.79847063,11.6077115 C2.78256557,10.7133307 2.93350977,9.79491402 3.2486353,8.86236472 C3.02370688,8.69566121 2.88415276,8.43374278 2.87378881,8.14912955 C2.87101826,8.07330834 2.87019735,7.780133 2.97845441,7.35357422 C1.42806966,5.24491931 2.11865735,3.474623 2.06940295,2.68205925 C2.01809629,1.85679438 1.3852799,2.35535752 1.3852799,2.35535752 C1.3852799,2.35535752 0,4.14350018 0,6.41297858 C0,9.92169534 2.08582108,11.9190426 2.87922732,12.5519176 C2.83510359,12.2628686 2.80452482,11.9480301 2.79847063,11.6077115" id="Fill-4" fill="#FFFFFF"></path>
                        <g id="Group-8" transform="translate(18.983465, 1.014354)">
                            <mask id="mask-4" fill="white">
                                <use xlink:href="#path-3"></use>
                            </mask>
                            <g id="Clip-7"></g>
                            <path d="M0.855128154,0.326670784 C0.564424601,-0.0343825977 0.0683917819,-0.137540707 0.324925098,0.756530624 C0.949840254,2.8044254 0.405989625,4.24533787 0.0676734887,4.87336444 C0.249401689,5.24772521 0.342061523,5.61249229 0.342061523,5.96601513 C0.342061523,6.25310414 0.212460892,6.50976152 0.00877343939,6.68007556 C0.400243279,7.63975544 0.804847624,9.0550847 0.599826199,10.4920772 C1.44905409,9.6975534 2.70216803,7.61221223 2.70216803,5.32983907 C2.70216803,2.45863942 1.14583171,0.687724165 0.855128154,0.326670784" id="Fill-6" fill="#FFFFFF" mask="url(#mask-4)"></path>
                        </g>
                    </g>
                </g>
            </g>
        </g>
    </g>
</svg>