<?xml version="1.0" encoding="UTF-8"?>
<svg width="32px" height="32px" viewBox="0 0 32 32" version="1.1" xmlns="http://www.w3.org/2000/svg" xmlns:xlink="http://www.w3.org/1999/xlink">
    <!-- Generator: Sketch 45.1 (43504) - http://www.bohemiancoding.com/sketch -->
    <title>Artboard 2</title>
    <desc>Created with Sketch.</desc>
    <defs>
        <polygon id="path-1" points="0.0321534373 0.0206884371 18.0393636 0.0206884371 18.0393636 26.2631657 0.0321534373 26.2631657 0.0321534373 0.0206884371"></polygon>
        <polygon id="path-3" points="3.24497941 0.0753448058 3.24497941 12.5999643 0.0105360475 12.5999643 0.0105360475 0.0753448058 3.24497941 0.0753448058"></polygon>
    </defs>
    <g id="Logo" stroke="none" stroke-width="1" fill="none" fill-rule="evenodd">
        <g id="Artboard-2">
            <g id="Page-1" transform="translate(3.000000, 2.000000)">
                <g id="Group-3" transform="translate(4.436231, 0.103194)">
                    <mask id="mask-2" fill="white">
                        <use xlink:href="#path-1"></use>
                    </mask>
                    <g id="Clip-2"></g>
                    <path d="M1.3760571,8.96085586 L0.123191657,9.64221158 C0.123191657,9.64221158 0.0411213925,7.39163171 3.20390731,5.45088287 C2.58776418,4.79009171 1.66354948,4.108736 1.66354948,4.108736 C1.66354948,4.108736 2.99860842,2.82865444 5.75067332,3.69583444 C5.85332277,2.41575288 7.22941683,0.206426005 8.66712521,0.0206017191 C8.44112391,0.61945145 8.05098208,2.0853573 8.27686015,2.78740145 C8.99565273,2.43631743 12.4872126,0.206426005 15.3625061,3.17961457 C14.7873981,3.22099145 14.0275704,3.26224444 13.2470403,3.86097029 C14.4793266,4.39787859 17.6628149,6.58639314 17.6628149,8.27950015 L16.718021,8.27950015 C16.718021,8.27950015 19.2236287,12.346946 17.3341642,15.3615114 C16.9644783,14.8040386 16.6769859,14.040053 16.6769859,14.040053 C16.6769859,14.040053 17.2109355,17.8597331 15.8554207,19.5115871 C15.5679283,18.6030303 15.1982424,17.6533443 15.1982424,17.6533443 C15.1982424,17.6533443 15.3830853,21.7001017 12.5282477,23.7236043 C12.3844399,22.8564243 12.199597,22.1131271 12.199597,22.1131271 C12.199597,22.1131271 11.1316977,25.6850416 8.54389659,26.2632029 C8.54389659,26.2632029 8.24087739,26.0618932 8.19466666,25.70573 C8.14734687,25.2124285 7.5374884,24.7766086 7.31161033,24.5288429 C7.08560903,24.2810771 6.40785158,23.3932087 6.40785158,22.6499116 C6.36681645,23.2693258 6.30520214,24.053876 6.30520214,24.053876 C6.30520214,24.053876 3.6352075,24.1365058 3.18345136,19.3257629 C2.9369941,19.7593529 2.62892254,20.6677859 2.62892254,20.6677859 C2.62892254,20.6677859 1.25282847,19.8832357 1.25282847,15.2581931 C1.12701204,15.4130467 0.895958371,16.1098878 0.636685342,16.682846 C0.246420283,15.6092771 -0.821478989,12.9663603 1.3760571,8.96085586" id="Fill-1" fill="#FFFFFF" mask="url(#mask-2)"></path>
                </g>
                <path d="M3.36069109,13.9397327 C3.34159065,12.8656683 3.52285996,11.7627392 3.90129507,10.6428382 C3.63117792,10.4426435 3.46358699,10.1281049 3.4511409,9.78631211 C3.44781373,9.69525821 3.4468279,9.34318314 3.5768341,8.83092752 C1.71497279,6.29863804 2.54430144,4.17268433 2.4851517,3.22089234 C2.42353739,2.22982948 1.66358645,2.82855533 1.66358645,2.82855533 C1.66358645,2.82855533 0,4.97594078 0,7.70136363 C0,11.9149912 2.50486828,14.3136111 3.45767202,15.0736325 C3.40468371,14.7265127 3.36796158,14.3484222 3.36069109,13.9397327" id="Fill-4" fill="#FFFFFF"></path>
                <g id="Group-8" transform="translate(22.797296, 1.218140)">
                    <mask id="mask-4" fill="white">
                        <use xlink:href="#path-3"></use>
                    </mask>
                    <g id="Clip-7"></g>
                    <path d="M1.02692575,0.392299843 C0.677819057,-0.0412901562 0.0821318792,-0.165173013 0.390203444,0.908519709 C1.14066578,3.36784219 0.487554059,5.09823793 0.0812692788,5.85243677 C0.299507175,6.30200765 0.410782625,6.74005744 0.410782625,7.16460399 C0.410782625,7.50936998 0.25514487,7.81759053 0.0105360475,8.02212112 C0.480653256,9.17460334 0.966543728,10.8742761 0.720332933,12.5999643 C1.74017304,11.6458186 3.24504102,9.14152662 3.24504102,6.40061841 C3.24504102,2.95258685 1.37603245,0.825889843 1.02692575,0.392299843" id="Fill-6" fill="#FFFFFF" mask="url(#mask-4)"></path>
                </g>
            </g>
        </g>
    </g>
</svg>